# xmcd
#
# Track frame offsets:
#	182
#	11370
#	25417
#	37382
#	51140
#	63022
#	74897
#	90495
#	107430
#	117775
#	127582
#	139212
#	150435
#	162360
#	176590
#	189142
#	202747
#	216045
#	227075
#	242130
#
# Disc length: 3405 seconds
#
# Revision: 1
# Processed by: cddbd v1.4PL0 Copyright (c) Steve Scherf et al.
# Submitted via: audiograbber 1.81.02
#
DISCID=040d4b14
DTITLE=Conway Twitty - 20 Greatest Hits Of Conway Twitty
DYEAR=1993
DGENRE=Country
TTITLE0=It's Only Make Believe
TTITLE1=Fifteen Years Ago
TTITLE2=She Needs Someone To Hold Her (When She Cries)
TTITLE3=Baby's Gone
TTITLE4=I'm Not Through Loving You Yet
TTITLE5=Linda On My Mind
TTITLE6=Touch The Hand
TTITLE7=Don't Cry Joni
TTITLE8=(I Can't Believe) She Gives It All To Me
TTITLE9=I'll Try
TTITLE10=To See An Angel Cry
TTITLE11=Hello, Darlin'
TTITLE12=I Can't See Me Without You
TTITLE13=You've Never Been This Far Before
TTITLE14=This Time I've Hurt Her More (Than She Loves Me)
TTITLE15=The Game That Daddies Play
TTITLE16=After All The Good Is Gone
TTITLE17=As Soon As I Hang Up The Phone
TTITLE18=(Lost Our Love) On Our Last Date
TTITLE19=Danny Boy
EXTD=
EXTT0=
EXTT1=
EXTT2=
EXTT3=
EXTT4=
EXTT5=
EXTT6=
EXTT7=
EXTT8=
EXTT9=
EXTT10=
EXTT11=
EXTT12=
EXTT13=
EXTT14=
EXTT15=
EXTT16=
EXTT17=
EXTT18=
EXTT19=
PLAYORDER=
